<?xml version="1.0" encoding="UTF-8"?>
<!DOCTYPE svg PUBLIC "-//W3C//DTD SVG 1.1//EN" "http://www.w3.org/Graphics/SVG/1.1/DTD/svg11.dtd">
<svg xmlns="http://www.w3.org/2000/svg" version="1.1" width="101px" height="22px" style="shape-rendering:geometricPrecision; text-rendering:geometricPrecision; image-rendering:optimizeQuality; fill-rule:evenodd; clip-rule:evenodd" xmlns:xlink="http://www.w3.org/1999/xlink">
<g><path style="opacity:0.665" fill="#fe9219" d="M 12.5,17.5 C 12.5,16.5 12.5,15.5 12.5,14.5C 13.8333,13.8333 13.8333,13.1667 12.5,12.5C 12.5,11.8333 12.1667,11.5 11.5,11.5C 11.5,10.8333 11.1667,10.5 10.5,10.5C 11.5624,9.42463 11.5624,8.42463 10.5,7.5C 9.61432,8.32496 9.28099,9.32496 9.5,10.5C 8.83333,10.5 8.5,10.8333 8.5,11.5C 7.66175,11.8417 7.32842,12.5084 7.5,13.5C 7.43255,14.9587 7.76589,16.2921 8.5,17.5C 7.5,17.5 6.5,17.5 5.5,17.5C 3.68275,13.4158 4.18275,9.7491 7,6.5C 7.33333,4.83333 7.66667,3.16667 8,1.5C 9.93764,0.139826 11.6043,0.473159 13,2.5C 13.6838,3.78387 13.5171,4.95054 12.5,6C 13.4162,6.37424 14.2496,6.87424 15,7.5C 15.6667,10.5 15.6667,13.5 15,16.5C 14.3292,17.2524 13.4959,17.5858 12.5,17.5 Z M 10.5,10.5 C 10.1667,10.5 9.83333,10.5 9.5,10.5C 9.28099,9.32496 9.61432,8.32496 10.5,7.5C 11.5624,8.42463 11.5624,9.42463 10.5,10.5 Z"/></g>
<g><path style="opacity:0.718" fill="#fe9219" d="M 30.5,2.5 C 31.5,2.5 32.5,2.5 33.5,2.5C 33.5,7.5 33.5,12.5 33.5,17.5C 32.5,17.5 31.5,17.5 30.5,17.5C 30.6633,15.1432 30.4966,12.8098 30,10.5C 28.2111,12.229 26.0444,12.8957 23.5,12.5C 23.5,14.1667 23.5,15.8333 23.5,17.5C 22.5,17.5 21.5,17.5 20.5,17.5C 20.5,12.8333 20.5,8.16667 20.5,3.5C 24.0071,2.99353 27.1737,3.66019 30,5.5C 30.4828,4.55198 30.6495,3.55198 30.5,2.5 Z M 23.5,5.5 C 28.6224,7.23927 28.6224,8.5726 23.5,9.5C 23.5,8.16667 23.5,6.83333 23.5,5.5 Z"/></g>
<g><path style="opacity:0.666" fill="#ff9219" d="M 50.5,5.5 C 51.4584,5.9528 52.2917,6.61947 53,7.5C 58.2668,4.21722 61.7668,5.55055 63.5,11.5C 61.5292,18.5454 57.6958,19.8787 52,15.5C 51.6667,13.1667 51.3333,10.8333 51,8.5C 48.7492,11.0172 47.9159,14.0172 48.5,17.5C 47.5,17.5 46.5,17.5 45.5,17.5C 45.5,13.8333 45.5,10.1667 45.5,6.5C 47.4147,6.78448 49.0813,6.45115 50.5,5.5 Z M 55.5,8.5 C 61.1549,9.46895 61.8216,11.8023 57.5,15.5C 54.452,13.8751 53.7853,11.5418 55.5,8.5 Z"/></g>
<g><path style="opacity:0.677" fill="#fe9219" d="M 34.5,6.5 C 35.5,6.5 36.5,6.5 37.5,6.5C 37.3359,9.1873 37.5026,11.854 38,14.5C 39,15.8333 40,15.8333 41,14.5C 41.4974,11.854 41.6641,9.1873 41.5,6.5C 42.5,6.5 43.5,6.5 44.5,6.5C 44.665,9.8499 44.4983,13.1832 44,16.5C 40.675,19.1707 37.675,18.8374 35,15.5C 34.502,12.5184 34.3354,9.51838 34.5,6.5 Z"/></g>
<g><path style="opacity:0.399" fill="#ff9219" d="M 64.5,6.5 C 70.5,6.5 76.5,6.5 82.5,6.5C 83.1667,10.5 83.8333,10.5 84.5,6.5C 88.0498,6.67002 91.3831,6.83669 94.5,7C 93.5399,8.41941 92.7065,9.91941 92,11.5C 90.2691,6.38694 88.9358,6.38694 88,11.5C 87.1822,6.20631 86.6822,6.20631 86.5,11.5C 84.1667,11.5 81.8333,11.5 79.5,11.5C 79.4427,6.31826 78.776,6.31826 77.5,11.5C 76.3756,6.27916 75.5423,6.27916 75,11.5C 73.1246,10.3769 70.9579,10.3769 68.5,11.5C 68.6567,10.1266 68.49,8.79323 68,7.5C 65.6916,12.8951 64.525,12.5617 64.5,6.5 Z"/></g>
<g><path style="opacity:0.696" fill="#9d5dc1" d="M 9.5,10.5 C 9.83333,10.5 10.1667,10.5 10.5,10.5C 11.1667,10.5 11.5,10.8333 11.5,11.5C 12.1667,11.5 12.5,11.8333 12.5,12.5C 12.5,13.1667 12.5,13.8333 12.5,14.5C 12.5,15.5 12.5,16.5 12.5,17.5C 11.1667,17.5 9.83333,17.5 8.5,17.5C 7.76589,16.2921 7.43255,14.9587 7.5,13.5C 8.33825,13.1583 8.67158,12.4916 8.5,11.5C 8.5,10.8333 8.83333,10.5 9.5,10.5 Z"/></g>
<g><path style="opacity:0.413" fill="#fe9219" d="M 65.5,12.5 C 66.7498,12.5774 67.5831,13.244 68,14.5C 69,11.8333 70,11.8333 71,14.5C 72.4178,12.6368 74.2511,12.1368 76.5,13C 77.3802,14.3561 77.7135,15.8561 77.5,17.5C 73.1821,17.303 69.0155,17.303 65,17.5C 64.6155,15.8034 64.7822,14.1368 65.5,12.5 Z"/></g>
<g><path style="opacity:0.349" fill="#ff9219" d="M 79.5,12.5 C 81.1238,12.3601 82.2904,13.0267 83,14.5C 84.4007,12.8078 86.2341,12.1412 88.5,12.5C 88.7725,14.9582 87.7725,16.6249 85.5,17.5C 84.5,16.1667 83.5,16.1667 82.5,17.5C 81.4593,15.0087 80.6259,15.0087 80,17.5C 79.5065,15.8659 79.3398,14.1992 79.5,12.5 Z"/></g>
</svg>
