<?xml version="1.0" encoding="UTF-8"?>
<!DOCTYPE svg PUBLIC "-//W3C//DTD SVG 1.1//EN" "http://www.w3.org/Graphics/SVG/1.1/DTD/svg11.dtd">
<svg xmlns="http://www.w3.org/2000/svg" version="1.1" width="101px" height="22px" style="shape-rendering:geometricPrecision; text-rendering:geometricPrecision; image-rendering:optimizeQuality; fill-rule:evenodd; clip-rule:evenodd" xmlns:xlink="http://www.w3.org/1999/xlink">
<g><path style="opacity:0.684" fill="#fefffe" d="M 5.5,0.5 C 9.945,-0.126512 11.6117,1.54016 10.5,5.5C 14.5357,9.27627 15.2023,13.4429 12.5,18C 2.88119,20.3813 -0.28548,16.8813 3,7.5C 3.75044,6.87424 4.58377,6.37424 5.5,6C 4.24751,4.17216 4.24751,2.33883 5.5,0.5 Z M 6.5,7.5 C 9.29325,7.74001 9.79325,8.74001 8,10.5C 6.96141,9.75618 6.46141,8.75618 6.5,7.5 Z M 5.5,11.5 C 6.46463,12.7211 6.29796,14.0544 5,15.5C 4.42094,14.0715 4.58761,12.7382 5.5,11.5 Z"/></g>
<g><path style="opacity:0.667" fill="#fefffe" d="M 29.5,2.5 C 30.8333,2.5 32.1667,2.5 33.5,2.5C 33.5,7.83333 33.5,13.1667 33.5,18.5C 32.1667,18.5 30.8333,18.5 29.5,18.5C 29.6641,15.8127 29.4974,13.146 29,10.5C 27.0651,12.7593 24.5651,13.7593 21.5,13.5C 21.5,15.1667 21.5,16.8333 21.5,18.5C 20.5,18.5 19.5,18.5 18.5,18.5C 18.5,13.5 18.5,8.5 18.5,3.5C 21.5184,3.33537 24.5184,3.50204 27.5,4C 29.1311,5.83562 29.7978,5.33562 29.5,2.5 Z M 21.5,5.5 C 28.1001,7.22649 28.1001,8.89315 21.5,10.5C 21.5,8.83333 21.5,7.16667 21.5,5.5 Z"/></g>
<g><path style="opacity:0.654" fill="#fefffe" d="M 56.5,5.5 C 63.8653,5.71372 66.3653,9.38038 64,16.5C 60.3333,20.5 56.6667,20.5 53,16.5C 52.5034,14.1902 52.3367,11.8568 52.5,9.5C 51.5,9.5 50.5,9.5 49.5,9.5C 49.5,12.5 49.5,15.5 49.5,18.5C 48.1667,18.5 46.8333,18.5 45.5,18.5C 45.5489,13.4612 44.8823,13.2945 43.5,18C 40.5624,19.9549 37.7291,19.7883 35,17.5C 34.5014,13.8484 34.3347,10.1817 34.5,6.5C 35.5,6.5 36.5,6.5 37.5,6.5C 36.9185,10.3155 37.7518,13.6488 40,16.5C 41.4051,13.3812 41.9051,10.0479 41.5,6.5C 45.6732,5.95636 49.5065,6.62303 53,8.5C 54.1451,7.36362 55.3117,6.36362 56.5,5.5 Z M 57.5,8.5 C 62.5727,10.8057 62.7394,13.4724 58,16.5C 54.868,13.9869 54.7013,11.3202 57.5,8.5 Z"/></g>
<g><path style="opacity:0.418" fill="#fefffe" d="M 66.5,6.5 C 72.8333,6.5 79.1667,6.5 85.5,6.5C 86.1667,10.5 86.8333,10.5 87.5,6.5C 91.3854,6.62786 95.0521,6.79453 98.5,7C 97.624,8.58601 96.624,10.086 95.5,11.5C 94.7568,10.0921 93.9234,8.75881 93,7.5C 92,12.8333 91,12.8333 90,7.5C 89.51,8.79323 89.3433,10.1266 89.5,11.5C 87.1667,11.5 84.8333,11.5 82.5,11.5C 82.4427,6.31826 81.776,6.31826 80.5,11.5C 79.7189,10.2713 79.2189,8.93801 79,7.5C 78.7811,8.93801 78.2811,10.2713 77.5,11.5C 76.8076,10.9747 76.3076,10.3081 76,9.5C 74.5993,11.1922 72.7659,11.8588 70.5,11.5C 70.6567,10.1266 70.49,8.79323 70,7.5C 67.6916,12.8951 66.525,12.5617 66.5,6.5 Z"/></g>
<g><path style="opacity:0.449" fill="#fefffe" d="M 67.5,13.5 C 68.7498,13.5774 69.5831,14.244 70,15.5C 70.3076,14.6919 70.8076,14.0253 71.5,13.5C 74.0018,13.6213 76.6685,13.7879 79.5,14C 80.8333,15.3333 80.8333,16.6667 79.5,18C 74.7899,18.029 70.1232,18.029 65.5,18C 66.2666,16.5295 66.9332,15.0295 67.5,13.5 Z M 76.5,14.5 C 78.7602,15.2376 78.9269,16.2376 77,17.5C 76.5172,16.552 76.3505,15.552 76.5,14.5 Z"/></g>
<g><path style="opacity:0.426" fill="#fefffe" d="M 81.5,13.5 C 83.451,13.2267 84.951,13.8934 86,15.5C 87.7702,13.5819 89.9369,13.0819 92.5,14C 89.4557,14.3589 89.1224,15.0255 91.5,16C 90.3333,16.5 89.5,17.3333 89,18.5C 88.1932,14.551 87.6932,14.551 87.5,18.5C 86.5,18.5 85.5,18.5 84.5,18.5C 84.4042,14.6893 83.7376,14.6893 82.5,18.5C 81.5481,16.9547 81.2148,15.288 81.5,13.5 Z"/></g>
</svg>
