<?xml version="1.0" encoding="UTF-8"?>
<!DOCTYPE svg PUBLIC "-//W3C//DTD SVG 1.1//EN" "http://www.w3.org/Graphics/SVG/1.1/DTD/svg11.dtd">
<svg xmlns="http://www.w3.org/2000/svg" version="1.1" width="101px" height="22px" style="shape-rendering:geometricPrecision; text-rendering:geometricPrecision; image-rendering:optimizeQuality; fill-rule:evenodd; clip-rule:evenodd" xmlns:xlink="http://www.w3.org/1999/xlink">
<g><path style="opacity:0.665" fill="#fe9219" d="M 12.5,18.5 C 13.3007,16.9582 13.634,15.2915 13.5,13.5C 13.6716,12.5084 13.3382,11.8417 12.5,11.5C 12.5,10.8333 12.1667,10.5 11.5,10.5C 11.7978,7.66438 11.1311,7.16438 9.5,9C 10.056,9.38258 10.3893,9.88258 10.5,10.5C 9.83333,10.5 9.5,10.8333 9.5,11.5C 7.48052,12.5383 7.14719,13.8716 8.5,15.5C 8.5,16.5 8.5,17.5 8.5,18.5C 6.06889,17.3932 5.06889,15.3932 5.5,12.5C 5.11914,9.67532 6.11914,7.50866 8.5,6C 7.05447,3.50678 7.72114,1.67345 10.5,0.5C 11.1667,0.833333 11.8333,1.16667 12.5,1.5C 12.9986,4.21725 14.1653,6.55059 16,8.5C 16.5428,11.8678 16.3761,15.2011 15.5,18.5C 14.5,18.5 13.5,18.5 12.5,18.5 Z M 11.5,10.5 C 11.1667,10.5 10.8333,10.5 10.5,10.5C 10.3893,9.88258 10.056,9.38258 9.5,9C 11.1311,7.16438 11.7978,7.66438 11.5,10.5 Z M 9.5,11.5 C 9.16667,12.8333 8.83333,14.1667 8.5,15.5C 7.14719,13.8716 7.48052,12.5383 9.5,11.5 Z"/></g>
<g><path style="opacity:0.652" fill="#fe9219" d="M 31.5,2.5 C 32.5,2.5 33.5,2.5 34.5,2.5C 34.5,7.83333 34.5,13.1667 34.5,18.5C 33.5,18.5 32.5,18.5 31.5,18.5C 31.6641,15.8127 31.4974,13.146 31,10.5C 29.005,12.747 26.505,13.747 23.5,13.5C 23.5,15.1667 23.5,16.8333 23.5,18.5C 22.5,18.5 21.5,18.5 20.5,18.5C 20.5,13.5 20.5,8.5 20.5,3.5C 23.1873,3.33591 25.854,3.50258 28.5,4C 29.6667,4.5 30.5,5.33333 31,6.5C 31.49,5.20677 31.6567,3.87344 31.5,2.5 Z M 23.5,6.5 C 29.9632,7.4046 29.9632,8.73793 23.5,10.5C 23.5,9.16667 23.5,7.83333 23.5,6.5 Z"/></g>
<g><path style="opacity:0.66" fill="#fe9219" d="M 35.5,6.5 C 36.5,6.5 37.5,6.5 38.5,6.5C 38.3359,9.1873 38.5026,11.854 39,14.5C 40.0113,15.3366 41.1779,15.67 42.5,15.5C 42.5,12.5 42.5,9.5 42.5,6.5C 43.5,6.5 44.5,6.5 45.5,6.5C 45.665,9.8499 45.4983,13.1832 45,16.5C 42,19.1667 39,19.1667 36,16.5C 35.5017,13.1832 35.335,9.8499 35.5,6.5 Z"/></g>
<g><path style="opacity:0.65" fill="#fe9219" d="M 46.5,6.5 C 51.4923,7.64911 56.4923,7.81577 61.5,7C 64.2868,9.16724 65.1201,12.0006 64,15.5C 60.3333,19.5 56.6667,19.5 53,15.5C 52.8078,13.4233 52.3078,11.4233 51.5,9.5C 51.1667,9.66667 50.8333,9.83333 50.5,10C 49.5562,12.7191 49.2229,15.5525 49.5,18.5C 48.5,18.5 47.5,18.5 46.5,18.5C 46.5,14.5 46.5,10.5 46.5,6.5 Z M 57.5,8.5 C 62.3105,10.253 62.6439,12.5863 58.5,15.5C 54.8425,13.8354 54.5091,11.5021 57.5,8.5 Z"/></g>
<g><path style="opacity:0.422" fill="#fe9219" d="M 66.5,6.5 C 72.5,6.5 78.5,6.5 84.5,6.5C 85.1667,10.5 85.8333,10.5 86.5,6.5C 89.5719,6.18259 92.5719,6.51592 95.5,7.5C 95.0234,8.93098 94.3567,10.2643 93.5,11.5C 92.7568,10.0921 91.9234,8.75881 91,7.5C 90,12.8333 89,12.8333 88,7.5C 87.51,8.79323 87.3433,10.1266 87.5,11.5C 85.5,11.5 83.5,11.5 81.5,11.5C 80.9675,6.20299 80.1342,6.20299 79,11.5C 78.4577,6.27916 77.6244,6.27916 76.5,11.5C 75.1687,10.8338 73.6687,10.8338 72,11.5C 70.6349,11.1557 69.4682,10.4891 68.5,9.5C 67.8076,10.0253 67.3076,10.6919 67,11.5C 66.5065,9.86586 66.3398,8.19919 66.5,6.5 Z M 71.5,8.5 C 72.0768,7.22671 72.7435,7.22671 73.5,8.5C 73.0302,9.46295 72.3635,9.46295 71.5,8.5 Z"/></g>
<g><path style="opacity:0.653" fill="#9f5dc0" d="M 10.5,10.5 C 10.8333,10.5 11.1667,10.5 11.5,10.5C 12.1667,10.5 12.5,10.8333 12.5,11.5C 12.3284,12.4916 12.6618,13.1583 13.5,13.5C 13.634,15.2915 13.3007,16.9582 12.5,18.5C 11.1667,18.5 9.83333,18.5 8.5,18.5C 8.5,17.5 8.5,16.5 8.5,15.5C 8.83333,14.1667 9.16667,12.8333 9.5,11.5C 9.5,10.8333 9.83333,10.5 10.5,10.5 Z"/></g>
<g><path style="opacity:0.412" fill="#fe9219" d="M 66.5,13.5 C 70.5,13.5 74.5,13.5 78.5,13.5C 79.17,16.5904 78.0033,18.257 75,18.5C 71.9894,18.2848 68.9894,18.2848 66,18.5C 65.6155,16.8034 65.7822,15.1368 66.5,13.5 Z M 75.5,14.5 C 76.2891,14.7828 76.9558,15.2828 77.5,16C 76.184,16.5281 75.5173,16.0281 75.5,14.5 Z"/></g>
<g><path style="opacity:0.383" fill="#fe9219" d="M 80.5,13.5 C 83.6842,13.8331 87.0175,13.9998 90.5,14C 88.6992,14.3173 88.3659,14.984 89.5,16C 87.9281,19.4174 86.7614,19.2507 86,15.5C 85.7508,16.624 85.2508,17.624 84.5,18.5C 83.5,17.1667 82.5,17.1667 81.5,18.5C 80.5481,16.9547 80.2148,15.288 80.5,13.5 Z"/></g>
</svg>
