<?xml version="1.0" encoding="UTF-8"?>
<!DOCTYPE svg PUBLIC "-//W3C//DTD SVG 1.1//EN" "http://www.w3.org/Graphics/SVG/1.1/DTD/svg11.dtd">
<svg xmlns="http://www.w3.org/2000/svg" version="1.1" width="101px" height="22px" style="shape-rendering:geometricPrecision; text-rendering:geometricPrecision; image-rendering:optimizeQuality; fill-rule:evenodd; clip-rule:evenodd" xmlns:xlink="http://www.w3.org/1999/xlink">
<g><path style="opacity:0.466" fill="#fe911e" d="M 7.5,-0.5 C 9.16667,-0.5 10.8333,-0.5 12.5,-0.5C 13.8845,3.85859 15.2179,8.19192 16.5,12.5C 16.3333,14.1667 16.1667,15.8333 16,17.5C 14.9887,18.3366 13.8221,18.67 12.5,18.5C 13.0841,15.0172 12.2508,12.0172 10,9.5C 7.74922,12.0172 6.91588,15.0172 7.5,18.5C 6.17793,18.67 5.01127,18.3366 4,17.5C 3.5,15.5 3,13.5 2.5,11.5C 5.11209,7.88987 6.77875,3.88987 7.5,-0.5 Z"/></g>
<g><path style="opacity:0.386" fill="#ff9219" d="M 30.5,1.5 C 32.1667,1.5 33.8333,1.5 35.5,1.5C 35.3433,2.87344 35.51,4.20677 36,5.5C 37.3946,4.18543 38.3946,4.51877 39,6.5C 39.7581,8.76948 39.5914,10.9361 38.5,13C 39.5634,14.1882 40.8967,14.6882 42.5,14.5C 42.3354,11.4816 42.502,8.48162 43,5.5C 43.5613,4.97814 44.228,4.6448 45,4.5C 47.6814,4.67052 50.5148,4.83719 53.5,5C 54,5.5 54.5,6 55,6.5C 58.1305,3.87832 61.2972,3.87832 64.5,6.5C 65.5,6 66.5,5.5 67.5,5C 73.5358,4.59411 79.3691,4.42745 85,4.5C 86.0437,5.62261 86.7104,6.95594 87,8.5C 87.3095,7.23409 87.8095,6.06743 88.5,5C 91.4679,4.83047 94.3012,4.6638 97,4.5C 97.8699,5.1079 98.3699,5.94123 98.5,7C 97.8524,8.43975 97.5191,9.93975 97.5,11.5C 96.1667,11.5 94.8333,11.5 93.5,11.5C 93.1667,6.16667 92.8333,6.16667 92.5,11.5C 83.8078,11.1686 75.1411,11.502 66.5,12.5C 70.887,12.5944 75.5537,12.5944 80.5,12.5C 80.5,14.5 80.5,16.5 80.5,18.5C 75.1032,18.7846 69.7698,18.4512 64.5,17.5C 56.9588,21.1457 52.4588,18.8123 51,10.5C 50.5026,13.146 50.3359,15.8127 50.5,18.5C 43.6212,19.616 36.9546,19.616 30.5,18.5C 30.7989,16.396 30.4656,14.396 29.5,12.5C 27.9291,13.3094 26.2624,13.6427 24.5,13.5C 24.5,15.1667 24.5,16.8333 24.5,18.5C 22.8333,18.5 21.1667,18.5 19.5,18.5C 19.5,13.1667 19.5,7.83333 19.5,2.5C 23.3714,2.81497 27.0381,2.48164 30.5,1.5 Z M 24.5,6.5 C 26.337,6.63945 26.6704,7.30612 25.5,8.5C 24.7025,8.04311 24.3691,7.37644 24.5,6.5 Z M 58.5,9.5 C 62.2336,10.9737 62.4002,12.6404 59,14.5C 55.9281,13.119 55.7614,11.4523 58.5,9.5 Z"/></g>
<g><path style="opacity:0.744" fill="#a35fbd" d="M 12.5,18.5 C 10.8333,18.5 9.16667,18.5 7.5,18.5C 6.91588,15.0172 7.74922,12.0172 10,9.5C 12.2508,12.0172 13.0841,15.0172 12.5,18.5 Z"/></g>
<g><path style="opacity:0.23" fill="#ff9219" d="M 81.5,12.5 C 85.1667,12.5 88.8333,12.5 92.5,12.5C 92.7852,14.288 92.4519,15.9547 91.5,17.5C 88.2423,18.4173 84.909,18.7507 81.5,18.5C 81.5,16.5 81.5,14.5 81.5,12.5 Z"/></g>
</svg>
